<svg width="20" height="18" viewBox="0 0 20 18" fill="none" xmlns="http://www.w3.org/2000/svg">
<path d="M7 8H8C8 7.44772 7.55228 7 7 7V8ZM1 17H0C0 17.5523 0.447715 18 1 18L1 17ZM1.10899 8.54602L2 9.00001L1.10899 8.54602ZM1.5459 8.10899L1.99989 9L1.5459 8.10899ZM19 17L19 18C19.5523 18 20 17.5523 20 17H19ZM13 17V18H13L13 17ZM13 5V4C12.4477 4 12 4.44772 12 5H13ZM18.8906 5.54602L17.9996 6.00001L18.8906 5.54602ZM18.4544 5.10899L18.9084 4.21799L18.4544 5.10899ZM7.10899 1.54602L8 2.00001L7.10899 1.54602ZM7.5459 1.10899L7.99989 2L7.5459 1.10899ZM12.8906 1.54602L11.9996 2.00001V2.00001L12.8906 1.54602ZM12.4544 1.10899L12.9084 0.217987L12.4544 1.10899ZM6 8V17H8V8H6ZM7 16H1V18H7V16ZM2 17V9.59998H0V17H2ZM2.59961 9H7V7H2.59961V9ZM2 9.59998C2 9.30345 2.00078 9.1412 2.0103 9.02463C2.01887 8.91974 2.0293 8.94251 2 9.00001L0.217987 8.09203C0.0796947 8.36344 0.0356238 8.63316 0.0169456 8.86176C-0.000777841 9.07867 0 9.33645 0 9.59998H2ZM2.59961 7C2.3361 7 2.07836 6.99922 1.86149 7.01695C1.63285 7.03564 1.36325 7.07973 1.09191 7.21799L1.99989 9C1.94246 9.02926 1.91968 9.01886 2.02442 9.0103C2.14091 9.00078 2.30307 9 2.59961 9V7ZM2 9.00001L1.99989 9L1.09191 7.21799C0.715325 7.40987 0.409602 7.71596 0.217987 8.09203L2 9.00001ZM18 6.59998V17H20V6.59998H18ZM19 16L13 16L13 18L19 18L19 16ZM14 17V5H12V17H14ZM13 6H17.4V4H13V6ZM20 6.59998C20 6.33609 20.0007 6.07834 19.9828 5.86119C19.964 5.6324 19.9197 5.36304 19.7816 5.09203L17.9996 6.00001C17.9705 5.94291 17.9809 5.9205 17.9896 6.0252C17.9991 6.14154 18 6.30381 18 6.59998H20ZM17.4 6C17.6965 6 17.8589 6.00078 17.9756 6.01031C18.0808 6.01889 18.058 6.02936 18.0004 6L18.9084 4.21799C18.6368 4.07963 18.3669 4.0356 18.1384 4.01694C17.9214 3.99922 17.6635 4 17.4 4V6ZM19.7816 5.09203C19.5907 4.71737 19.2863 4.41058 18.9084 4.21799L18.0004 6L17.9996 6.00001L19.7816 5.09203ZM12 2.59998V17H14V2.59998H12ZM13 16H7V18H13V16ZM8 17V2.59998H6V17H8ZM8.59961 2H11.3996V0H8.59961V2ZM8 2.59998C8 2.30345 8.00078 2.1412 8.0103 2.02463C8.01887 1.91974 8.0293 1.94251 8 2.00001L6.21799 1.09203C6.07969 1.36344 6.03562 1.63316 6.01695 1.86176C5.99922 2.07867 6 2.33645 6 2.59998H8ZM8.59961 0C8.3361 0 8.07836 -0.000778437 7.86149 0.016948C7.63285 0.0356359 7.36325 0.0797299 7.09191 0.217987L7.99989 2C7.94246 2.02926 7.91968 2.01886 8.02442 2.0103C8.14091 2.00078 8.30307 2 8.59961 2V0ZM8 2.00001L7.99989 2L7.09191 0.217987C6.71533 0.409865 6.4096 0.715964 6.21799 1.09203L8 2.00001ZM14 2.59998C14 2.33609 14.0007 2.07834 13.9828 1.86119C13.964 1.6324 13.9197 1.36304 13.7816 1.09203L11.9996 2.00001C11.9705 1.94291 11.9809 1.9205 11.9896 2.0252C11.9991 2.14154 12 2.30381 12 2.59998H14ZM11.3996 2C11.6961 2 11.8586 2.00078 11.9755 2.01031C12.0809 2.01891 12.0581 2.02942 12.0004 2L12.9084 0.217987C12.6367 0.0795776 12.3666 0.0355836 12.1381 0.0169376C11.9211 -0.000775576 11.6632 0 11.3996 0V2ZM13.7816 1.09203C13.5907 0.717369 13.2864 0.410578 12.9084 0.217987L12.0004 2L11.9996 2.00001L13.7816 1.09203Z" fill="#414042"/>
</svg>
